<svg width="27" height="27" viewBox="0 0 27 27" fill="none" xmlns="http://www.w3.org/2000/svg">
<path d="M20.3975 5.05242C20.091 5.05242 19.7913 5.14333 19.5364 5.31364C19.2815 5.48396 19.0828 5.72603 18.9655 6.00926C18.8482 6.29249 18.8175 6.60414 18.8773 6.90481C18.9371 7.20548 19.0848 7.48166 19.3015 7.69843C19.5183 7.91521 19.7945 8.06283 20.0952 8.12264C20.3958 8.18244 20.7075 8.15175 20.9907 8.03443C21.2739 7.91712 21.516 7.71845 21.6863 7.46355C21.8566 7.20866 21.9475 6.90898 21.9475 6.60242C21.9475 6.19133 21.7842 5.79708 21.4936 5.5064C21.2029 5.21572 20.8086 5.05242 20.3975 5.05242ZM26.3392 8.17825C26.3141 7.10655 26.1134 6.04623 25.745 5.0395C25.4166 4.17813 24.9054 3.39815 24.2467 2.75325C23.6071 2.09118 22.8253 1.58323 21.9605 1.26784C20.9564 0.888293 19.8949 0.682982 18.8217 0.660752C17.4525 0.583252 17.0134 0.583252 13.5 0.583252C9.98671 0.583252 9.54754 0.583252 8.17837 0.660752C7.1052 0.682982 6.04369 0.888293 5.03962 1.26784C4.17637 1.58642 3.39525 2.09393 2.75337 2.75325C2.0913 3.39286 1.58335 4.17465 1.26796 5.0395C0.888415 6.04357 0.683104 7.10507 0.660874 8.17825C0.583374 9.54742 0.583374 9.98659 0.583374 13.4999C0.583374 17.0133 0.583374 17.4524 0.660874 18.8216C0.683104 19.8948 0.888415 20.9563 1.26796 21.9603C1.58335 22.8252 2.0913 23.607 2.75337 24.2466C3.39525 24.9059 4.17637 25.4134 5.03962 25.732C6.04369 26.1115 7.1052 26.3169 8.17837 26.3391C9.54754 26.4166 9.98671 26.4166 13.5 26.4166C17.0134 26.4166 17.4525 26.4166 18.8217 26.3391C19.8949 26.3169 20.9564 26.1115 21.9605 25.732C22.8253 25.4166 23.6071 24.9087 24.2467 24.2466C24.9084 23.6041 25.42 22.8234 25.745 21.9603C26.1134 20.9536 26.3141 19.8933 26.3392 18.8216C26.3392 17.4524 26.4167 17.0133 26.4167 13.4999C26.4167 9.98659 26.4167 9.54742 26.3392 8.17825ZM24.0142 18.6666C24.0048 19.4865 23.8563 20.2989 23.575 21.0691C23.3688 21.6312 23.0376 22.1391 22.6063 22.5545C22.1873 22.9814 21.6805 23.312 21.1209 23.5233C20.3507 23.8045 19.5383 23.953 18.7184 23.9624C17.4267 24.027 16.9488 24.0399 13.5517 24.0399C10.1546 24.0399 9.67671 24.0399 8.38504 23.9624C7.53369 23.9784 6.68598 23.8473 5.87921 23.5749C5.34418 23.3529 4.86054 23.0231 4.45837 22.6062C4.02966 22.1912 3.70255 21.6829 3.50254 21.1208C3.18719 20.3395 3.01228 19.5087 2.98587 18.6666C2.98587 17.3749 2.90837 16.897 2.90837 13.4999C2.90837 10.1028 2.90837 9.62492 2.98587 8.33325C2.99166 7.49503 3.14468 6.66435 3.43796 5.87909C3.66535 5.33389 4.01438 4.84789 4.45837 4.45825C4.8508 4.01414 5.33579 3.66142 5.87921 3.42492C6.66654 3.14081 7.49637 2.99231 8.33337 2.98575C9.62504 2.98575 10.103 2.90825 13.5 2.90825C16.8971 2.90825 17.375 2.90825 18.6667 2.98575C19.4866 2.99516 20.299 3.14365 21.0692 3.42492C21.6562 3.64276 22.183 3.99693 22.6063 4.45825C23.0296 4.85502 23.3603 5.34012 23.575 5.87909C23.8621 6.66563 24.0107 7.49597 24.0142 8.33325C24.0788 9.62492 24.0917 10.1028 24.0917 13.4999C24.0917 16.897 24.0788 17.3749 24.0142 18.6666ZM13.5 6.87367C12.19 6.87622 10.9102 7.26701 9.82222 7.99667C8.73424 8.72632 7.88695 9.76209 7.3874 10.9731C6.88786 12.1841 6.75848 13.516 7.01561 14.8005C7.27274 16.0851 7.90485 17.2645 8.83206 18.1899C9.75927 19.1153 10.94 19.7451 12.225 19.9998C13.51 20.2544 14.8417 20.1224 16.0517 19.6205C17.2617 19.1186 18.2958 18.2693 19.0234 17.1799C19.7509 16.0905 20.1392 14.8099 20.1392 13.4999C20.1409 12.6282 19.9703 11.7647 19.6371 10.9592C19.3039 10.1536 18.8147 9.42188 18.1977 8.80607C17.5807 8.19025 16.848 7.7025 16.0418 7.37087C15.2356 7.03924 14.3718 6.87026 13.5 6.87367ZM13.5 17.8012C12.6493 17.8012 11.8177 17.5489 11.1104 17.0763C10.4031 16.6037 9.85176 15.9319 9.5262 15.1459C9.20065 14.36 9.11547 13.4951 9.28144 12.6608C9.4474 11.8264 9.85706 11.06 10.4586 10.4585C11.0601 9.85694 11.8265 9.44728 12.6609 9.28132C13.4953 9.11535 14.3601 9.20053 15.1461 9.52608C15.932 9.85163 16.6038 10.4029 17.0764 11.1103C17.549 11.8176 17.8013 12.6492 17.8013 13.4999C17.8013 14.0648 17.69 14.6241 17.4739 15.1459C17.2577 15.6678 16.9409 16.142 16.5415 16.5414C16.1421 16.9408 15.6679 17.2576 15.1461 17.4738C14.6242 17.6899 14.0649 17.8012 13.5 17.8012Z" fill="#F551A2"/>
</svg>
