<svg width="27" height="27" viewBox="0 0 27 27" fill="none" xmlns="http://www.w3.org/2000/svg">
<path d="M23.1097 14.7918C22.8255 14.7918 22.5285 14.7014 22.2443 14.6368C21.6688 14.51 21.1033 14.3417 20.5522 14.1331C19.953 13.9151 19.2943 13.9264 18.7029 14.1649C18.1116 14.4033 17.6293 14.8521 17.3489 15.4248L17.0647 16.006C15.8066 15.3062 14.6506 14.4369 13.6289 13.4227C12.6146 12.401 11.7454 11.2449 11.0455 9.98684L11.588 9.62518C12.1607 9.34478 12.6095 8.86248 12.8479 8.27111C13.0864 7.67973 13.0977 7.02106 12.8797 6.42184C12.6746 5.86955 12.5063 5.30429 12.376 4.72976C12.3114 4.44559 12.2597 4.14851 12.221 3.85143C12.0641 2.9416 11.5876 2.11768 10.8771 1.52803C10.1667 0.938377 9.2691 0.621754 8.34595 0.635175H4.47095C3.91429 0.629949 3.36303 0.744726 2.8547 0.971694C2.34638 1.19866 1.89293 1.53249 1.52522 1.95046C1.15751 2.36842 0.884168 2.86071 0.723812 3.39381C0.563457 3.9269 0.519847 4.48829 0.595953 5.03976C1.28407 10.451 3.75541 15.4789 7.61959 19.329C11.4838 23.1791 16.5205 25.6322 21.9343 26.3006H22.4251C23.3776 26.302 24.2973 25.9525 25.0085 25.3189C25.4171 24.9534 25.7435 24.5054 25.9662 24.0044C26.1888 23.5034 26.3027 22.9609 26.3001 22.4127V18.5377C26.2843 17.6405 25.9576 16.7766 25.3757 16.0934C24.7939 15.4103 23.993 14.9502 23.1097 14.7918ZM23.7555 22.5418C23.7553 22.7252 23.716 22.9065 23.6403 23.0735C23.5646 23.2406 23.4541 23.3896 23.3164 23.5106C23.1725 23.6359 23.0038 23.7294 22.8212 23.7851C22.6387 23.8407 22.4465 23.8572 22.2572 23.8335C17.4198 23.2133 12.9265 21.0002 9.48613 17.5435C6.04575 14.0867 3.85407 9.58299 3.25679 4.74268C3.23623 4.55347 3.25425 4.36206 3.30975 4.18001C3.36525 3.99797 3.45708 3.82906 3.5797 3.68351C3.70075 3.54573 3.84974 3.4353 4.01678 3.35958C4.18381 3.28386 4.36506 3.24457 4.54845 3.24434H8.42345C8.72383 3.23766 9.01713 3.3359 9.25289 3.52214C9.48864 3.70839 9.6521 3.971 9.71512 4.26476C9.76679 4.61781 9.83137 4.96656 9.90887 5.31101C10.0581 5.9919 10.2567 6.66103 10.503 7.31309L8.6947 8.15268C8.54009 8.22362 8.40101 8.3244 8.28545 8.44924C8.16989 8.57408 8.08013 8.72051 8.02132 8.88014C7.96251 9.03976 7.93581 9.20943 7.94276 9.3794C7.9497 9.54937 7.99015 9.7163 8.06179 9.87059C9.92075 13.8525 13.1216 17.0533 17.1035 18.9123C17.4179 19.0415 17.7706 19.0415 18.0851 18.9123C18.2462 18.8546 18.3942 18.7656 18.5206 18.6503C18.647 18.535 18.7492 18.3957 18.8214 18.2406L19.6222 16.4323C20.29 16.6711 20.9715 16.8695 21.663 17.0264C22.0075 17.1039 22.3562 17.1685 22.7093 17.2202C23.003 17.2832 23.2657 17.4467 23.4519 17.6824C23.6381 17.9182 23.7364 18.2115 23.7297 18.5118L23.7555 22.5418Z" fill="#F551A2"/>
</svg>
