<svg width="21" height="27" viewBox="0 0 21 27" fill="none" xmlns="http://www.w3.org/2000/svg">
<path d="M10.5 0.583252C7.75939 0.583252 5.13106 1.67194 3.19319 3.60982C1.25531 5.54769 0.166626 8.17601 0.166626 10.9166C0.166626 17.8916 9.27288 25.7708 9.66038 26.1066C9.89434 26.3067 10.1921 26.4167 10.5 26.4167C10.8078 26.4167 11.1056 26.3067 11.3395 26.1066C11.7916 25.7708 20.8333 17.8916 20.8333 10.9166C20.8333 8.17601 19.7446 5.54769 17.8067 3.60982C15.8689 1.67194 13.2405 0.583252 10.5 0.583252ZM10.5 23.3812C7.74871 20.7978 2.74996 15.2308 2.74996 10.9166C2.74996 8.86116 3.56647 6.88991 5.01988 5.43651C6.47329 3.9831 8.44453 3.16659 10.5 3.16659C12.5554 3.16659 14.5266 3.9831 15.98 5.43651C17.4334 6.88991 18.25 8.86116 18.25 10.9166C18.25 15.2308 13.2512 20.8108 10.5 23.3812ZM10.5 5.74992C9.47809 5.74992 8.47917 6.05294 7.62951 6.62066C6.77986 7.18838 6.11763 7.9953 5.72658 8.93939C5.33553 9.88347 5.23321 10.9223 5.43257 11.9246C5.63192 12.9268 6.124 13.8474 6.84657 14.57C7.56914 15.2925 8.48976 15.7846 9.49199 15.984C10.4942 16.1833 11.5331 16.081 12.4772 15.69C13.4212 15.2989 14.2282 14.6367 14.7959 13.787C15.3636 12.9374 15.6666 11.9385 15.6666 10.9166C15.6666 9.5463 15.1223 8.23214 14.1533 7.2632C13.1844 6.29426 11.8702 5.74992 10.5 5.74992ZM10.5 13.4999C9.98902 13.4999 9.48956 13.3484 9.06474 13.0645C8.63991 12.7807 8.3088 12.3772 8.11327 11.9052C7.91774 11.4331 7.86658 10.9137 7.96626 10.4126C8.06594 9.91148 8.31198 9.45118 8.67327 9.08989C9.03455 8.72861 9.49486 8.48257 9.99597 8.38289C10.4971 8.28321 11.0165 8.33437 11.4886 8.5299C11.9606 8.72542 12.3641 9.05653 12.6479 9.48136C12.9318 9.90619 13.0833 10.4057 13.0833 10.9166C13.0833 11.6017 12.8111 12.2588 12.3266 12.7433C11.8422 13.2277 11.1851 13.4999 10.5 13.4999Z" fill="#F551A2"/>
</svg>
